<svg width="10.000000" height="10.000000" viewBox="0 0 10 10" fill="none" xmlns="http://www.w3.org/2000/svg" xmlns:xlink="http://www.w3.org/1999/xlink">
	<desc>
			Created with Pixso.
	</desc>
	<defs>
		<clipPath id="clip1_3623">
			<rect id="Chevron" width="10.000000" height="10.000000" transform="translate(0.000000 -0.109375)" fill="white" fill-opacity="0"/>
		</clipPath>
	</defs>
	<g clip-path="url(#clip1_3623)">
		<path id="Vector" d="M8.96 3.54C9.23 3.28 9.23 2.85 8.96 2.58C8.7 2.32 8.27 2.32 8.01 2.58L5 5.61L1.98 2.58C1.72 2.32 1.29 2.32 1.03 2.58C0.76 2.85 0.76 3.28 1.03 3.54L4.51 7.04C4.51 7.04 4.52 7.05 4.52 7.05C4.6 7.14 4.71 7.19 4.82 7.22C4.82 7.22 4.82 7.22 4.83 7.23C5.05 7.28 5.3 7.22 5.47 7.05C5.48 7.04 5.48 7.04 5.48 7.04L8.96 3.54Z" fill="#9E9EA7" fill-opacity="1.000000" fill-rule="nonzero"/>
	</g>
</svg>
