<svg width="13.000000" height="8.000000" viewBox="0 0 13 8" fill="none" xmlns="http://www.w3.org/2000/svg" xmlns:xlink="http://www.w3.org/1999/xlink">
	<desc>
			Created with Pixso.
	</desc>
	<defs/>
	<path id="Vector" d="M-0.75 0.64C-0.75 0.19 -0.39 -0.18 0.06 -0.18L11.43 -0.18C11.88 -0.18 12.25 0.19 12.25 0.64C12.25 1.08 11.88 1.45 11.43 1.45L0.06 1.45C-0.39 1.45 -0.75 1.08 -0.75 0.64ZM0.87 3.89C0.87 3.44 1.23 3.07 1.68 3.07L9.81 3.07C10.26 3.07 10.62 3.44 10.62 3.89C10.62 4.33 10.26 4.7 9.81 4.7L1.68 4.7C1.23 4.7 0.87 4.33 0.87 3.89ZM3.31 6.32C2.86 6.32 2.5 6.69 2.5 7.14C2.5 7.58 2.86 7.95 3.31 7.95L8.18 7.95C8.63 7.95 9 7.58 9 7.14C9 6.69 8.63 6.32 8.18 6.32L3.31 6.32Z" fill="#0D0C22" fill-opacity="1.000000" fill-rule="evenodd"/>
</svg>
