<svg width="76.000000" height="18.000000" viewBox="0 0 76 18" fill="none" xmlns="http://www.w3.org/2000/svg" xmlns:xlink="http://www.w3.org/1999/xlink">
	<desc>
			Created with Pixso.
	</desc>
	<defs/>
	<path id="Vector" d="M75.88 14.04C72.7 19.43 67.67 17.86 66.16 16.64C65.52 17.08 64.39 18.03 62.89 17.92C59.69 17.69 58.54 13.11 58.54 13.11C58.56 13.13 57.59 13.45 57.06 13.44C57.05 14.79 55.89 17.99 52.76 17.95C49.25 17.9 48.54 12.67 48.54 12.67C48.54 12.67 48.19 13.16 46.86 13.64C46.92 12.61 46.88 17.79 42.67 17.87C39.34 17.93 38.44 12.59 38.44 12.59C38.44 12.59 37.86 13.19 36.74 13.4C36.82 12.35 36.7 17.89 32.49 17.87C29.64 17.86 28.67 14.58 28.75 14.13C28.84 13.55 27.79 17.95 25.02 17.88C23.88 17.85 23.03 17.02 22.5 15.92C21.78 16.74 20.75 17.88 19.58 17.88C17.5 17.88 16.58 16.14 16.73 11.15C16.75 10.56 16.7 10.32 16.11 10.24C15.76 10.18 15.4 10.06 15.02 10.01C14.89 10.41 13.86 17.75 10.28 17.89C9.08 17.94 8.42 16.9 7.89 16.12C7.06 17.22 5.97 17.92 4.42 17.92C1.79 17.92 0 15.8 0 13.17C0 10.55 1.79 8.43 4.42 8.43C4.88 8.43 5.01 8.49 5.44 8.62C4.56 0.66 6.63 -0.58 8.43 -0.58C10.17 -0.58 13.13 3.44 8.96 13.64C9.88 16.68 11.88 16.51 12.84 10.25C13.03 8.97 12.51 7.26 13.32 7.02C14.8 6.58 14.96 7.89 15.66 8.11C16.39 8.34 16.82 8.32 17.53 8.47C18.73 8.7 19.2 9.35 19.06 10.79C18.88 12.62 18.57 15.28 19.51 15.6C20.19 15.84 21.43 14.43 21.65 13.66C21.86 12.89 21.91 12.63 21.93 12.06C21.96 10.85 21.99 9.97 22.2 9.06C22.29 8.7 22.39 8.47 22.79 8.45C23.12 8.44 23.72 8.35 23.98 8.55C24.34 8.82 24.29 9.09 24.25 9.79C23.84 19.89 27 14.85 27.94 10.81C27.61 6.25 27.84 -0.5 30.69 -0.61C32.18 -0.67 32.84 0.52 32.91 1.41C33.12 3.92 31.97 8.08 30.46 10.88C29.6 16.58 34.23 17.71 34.97 13.16C33.76 12.58 32.45 10.25 33.51 9.12C34.11 8.48 36.6 9.4 36.64 11.39C37.86 11.07 38.02 10.38 38.04 10.49C37.7 5.93 38.01 -0.5 40.87 -0.61C42.36 -0.67 43.01 0.52 43.09 1.41C43.29 3.92 42.15 8.08 40.64 10.88C39.78 16.58 44.4 17.71 45.14 13.16C44.25 12.98 42.36 10.51 43.45 9.12C44.03 8.37 46.51 9.92 46.79 11.46C47.96 11.13 48.12 10.46 48.13 10.57C47.8 6.01 48.11 -0.42 50.97 -0.53C52.45 -0.59 53.11 0.6 53.18 1.49C53.39 4 52.24 8.16 50.74 10.96C49.87 16.66 54.5 17.79 55.24 13.24C54.01 13.03 52.26 10.42 53.67 9.08C54.23 8.54 56.38 9.93 56.88 11.52C57.58 11.49 58.02 11.25 58.11 11.22C56.99 5.87 57.83 -0.56 60.9 -0.61C62.56 -0.64 64.19 0.29 63.48 5.38C62.79 10.24 60.35 12.28 60.35 12.31C60.5 12.9 61.75 17.77 64.91 15.2C64.75 14.83 64.59 14.45 64.49 13.99C63.97 11.32 65 8.3 67.8 7.81C69.4 7.53 70.91 8.31 71.15 10.07C71.54 12.95 68.94 15.04 67.95 15.49C67.51 15.24 71.97 18.1 74.61 12.37C74.77 12.04 74.95 12.07 75.19 12.24C75.36 12.36 76.33 13.27 75.88 14.04ZM6.33 12.47C6.2 12.06 5.92 11.18 5.82 10.79C5.28 10.33 4.9 10.25 4.21 10.25C2.67 10.25 1.77 11.67 1.77 13.2C1.77 14.73 2.76 16.15 4.29 16.15C5.62 16.15 6.63 15.24 6.94 13.96C6.72 13.46 6.51 13.01 6.33 12.47ZM8.39 1.52C7.32 1.52 6.95 4.1 7.02 6.29C7.08 8.23 7.63 9.94 7.91 10.7C7.98 10.8 7.97 10.74 8.03 10.84C9.9 6.74 9.13 1.52 8.39 1.52ZM30.85 1.6C29.45 1.44 29.46 7.25 29.64 8.55C30.36 7.39 31.62 1.92 30.85 1.6ZM41.02 1.6C39.63 1.44 39.64 7.25 39.81 8.55C40.54 7.39 41.79 1.92 41.02 1.6ZM51.12 1.68C49.73 1.52 49.74 7.33 49.91 8.63C50.63 7.47 51.89 2 51.12 1.68ZM61.06 1.26C58.88 1.7 59.39 8.94 59.72 10.21C62.28 6.7 62.33 1.13 61.06 1.26ZM69.19 10.31C69.08 9.85 68.53 9.6 68.15 9.66C67.06 9.81 66 11.17 66.41 13.24C66.5 13.7 66.73 14.12 66.73 14.11C69.17 12.47 69.37 11.18 69.19 10.31ZM23.22 6.86C22.9 6.86 22.6 6.76 22.34 6.59C22.08 6.42 21.88 6.17 21.76 5.88C21.64 5.6 21.61 5.28 21.67 4.97C21.73 4.67 21.88 4.39 22.1 4.17C22.32 3.95 22.6 3.8 22.91 3.73C23.21 3.67 23.53 3.7 23.82 3.82C24.11 3.94 24.35 4.15 24.53 4.4C24.7 4.66 24.79 4.97 24.79 5.28C24.79 5.49 24.75 5.69 24.67 5.88C24.59 6.07 24.48 6.25 24.33 6.39C24.18 6.54 24.01 6.66 23.82 6.74C23.63 6.81 23.42 6.86 23.22 6.86Z" fill="#0D0C22" fill-opacity="1.000000" fill-rule="evenodd"/>
</svg>
