<svg width="18.000000" height="18.000000" viewBox="0 0 18 18" fill="none" xmlns="http://www.w3.org/2000/svg" xmlns:xlink="http://www.w3.org/1999/xlink">
	<desc>
			Created with Pixso.
	</desc>
	<defs/>
	<path id="Vector" d="M11.73 13.3C10.49 14.21 8.96 14.75 7.31 14.75C3.17 14.75 -0.19 11.39 -0.19 7.25C-0.19 3.1 3.17 -0.25 7.31 -0.25C11.45 -0.25 14.81 3.1 14.81 7.25C14.81 8.92 14.26 10.47 13.33 11.72C13.34 11.73 13.35 11.73 13.35 11.74L17.01 15.4C17.45 15.84 17.45 16.55 17.01 16.99C16.57 17.43 15.86 17.43 15.42 16.99L11.76 13.33C11.75 13.32 11.74 13.31 11.73 13.3ZM12.56 7.25C12.56 10.14 10.21 12.5 7.31 12.5C4.41 12.5 2.06 10.14 2.06 7.25C2.06 4.35 4.41 2 7.31 2C10.21 2 12.56 4.35 12.56 7.25Z" fill="#9E9EA7" fill-opacity="1.000000" fill-rule="evenodd"/>
</svg>
